<svg xmlns="http://www.w3.org/2000/svg" xmlns:xlink="http://www.w3.org/1999/xlink" version="1.0" x="0" y="0" width="2400" height="1026.9947557654973" viewBox="52.929731903076174 74.90393692016602 234.14053619384765 100.19212615966796" preserveAspectRatio="xMidYMid meet" color-interpolation-filters="sRGB"><g><defs><linearGradient id="92" x1="0%" y1="0%" x2="100%" y2="0%"><stop offset="0%" stop-color="#fa71cd"></stop> <stop offset="100%" stop-color="#9b59b6"></stop></linearGradient><linearGradient id="93" x1="0%" y1="0%" x2="100%" y2="0%"><stop offset="0%" stop-color="#f9d423"></stop> <stop offset="100%" stop-color="#f83600"></stop></linearGradient><linearGradient id="94" x1="0%" y1="0%" x2="100%" y2="0%"><stop offset="0%" stop-color="#0064d2"></stop> <stop offset="100%" stop-color="#1cb0f6"></stop></linearGradient><linearGradient id="95" x1="0%" y1="0%" x2="100%" y2="0%"><stop offset="0%" stop-color="#f00978"></stop> <stop offset="100%" stop-color="#3f51b1"></stop></linearGradient><linearGradient id="96" x1="0%" y1="0%" x2="100%" y2="0%"><stop offset="0%" stop-color="#7873f5"></stop> <stop offset="100%" stop-color="#ec77ab"></stop></linearGradient><linearGradient id="97" x1="0%" y1="0%" x2="100%" y2="0%"><stop offset="0%" stop-color="#f9d423"></stop> <stop offset="100%" stop-color="#e14fad"></stop></linearGradient><linearGradient id="98" x1="0%" y1="0%" x2="100%" y2="0%"><stop offset="0%" stop-color="#009efd"></stop> <stop offset="100%" stop-color="#2af598"></stop></linearGradient><linearGradient id="99" x1="0%" y1="0%" x2="100%" y2="0%"><stop offset="0%" stop-color="#ffcc00"></stop> <stop offset="100%" stop-color="#00b140"></stop></linearGradient><linearGradient id="100" x1="0%" y1="0%" x2="100%" y2="0%"><stop offset="0%" stop-color="#d51007"></stop> <stop offset="100%" stop-color="#ff8177"></stop></linearGradient><linearGradient id="102" x1="0%" y1="0%" x2="100%" y2="0%"><stop offset="0%" stop-color="#a2b6df"></stop> <stop offset="100%" stop-color="#0c3483"></stop></linearGradient><linearGradient id="103" x1="0%" y1="0%" x2="100%" y2="0%"><stop offset="0%" stop-color="#7ac5d8"></stop> <stop offset="100%" stop-color="#eea2a2"></stop></linearGradient><linearGradient id="104" x1="0%" y1="0%" x2="100%" y2="0%"><stop offset="0%" stop-color="#00ecbc"></stop> <stop offset="100%" stop-color="#007adf"></stop></linearGradient><linearGradient id="105" x1="0%" y1="0%" x2="100%" y2="0%"><stop offset="0%" stop-color="#b88746"></stop> <stop offset="100%" stop-color="#fdf5a6"></stop></linearGradient></defs><g fill="#1891db" class="iconblsvg-g iconsvg" transform="translate(55.22522735595703,77.19943237304688)"><g class="tp-name" transform="translate(0,0)"><g transform="translate(0, 39.53031054947728)"><g transform="scale(1)"><path d="M34.26-9.22L34.26-0.66Q21.94 0.66 12.52 0.66L12.52 0.66Q8.04 0.66 5.34-2.04 2.64-4.74 2.64-9.22L2.64-9.22 2.64-24.38Q2.64-29.32 5.44-32.12 8.24-34.92 13.18-34.92L13.18-34.92 34.26-34.92 34.26-26.03 16.8-26.03Q14.17-26.03 14.17-23.39L14.17-23.39 14.17-10.54Q14.17-9.55 14.83-8.9 15.48-8.24 16.47-8.24L16.47-8.24Q22.4-8.24 34.26-9.22L34.26-9.22ZM55.35-11.2L62.93-34.92 75.12-34.92 61.94 0 48.76 0 35.58-34.92 47.77-34.92 55.35-11.2Z" transform="translate(-2.640000104904175, 35.58000183105469)"></path></g></g> <g transform="translate(72.4800033569336, 0)"><g><g fill="#1891db" class="imagesvg"><rect fill="#1891db" fill-opacity="0" stroke-width="2" x="0" y="0" width="81.29953488372094" height="81.29953488372094" class="image-rect"></rect> <svg viewBox="0 0 60 64.09160827209024" x="0" y="0" width="81.29953488372094" height="81.29953488372094" class="image-svg-svg bn" style="overflow: visible;"><g hollow-target="iconBnFill" mask="url(#46bbb43d-acba-44b7-bca1-5df23440a430)"><g><svg xmlns="http://www.w3.org/2000/svg" viewBox="0 0 132.86 141.92" style="overflow: visible;" width="60" height="64.09160827209024" x="0" y="0" filtersec="colorsf2790901549"><g transform="scale(1, 1) skewX(0)"><path fill="#cfe2f3" opacity=".6" d="M19 0h113.86v113.86H19z"></path><path fill="#cfe2f3" opacity=".8" d="M9.73 18.53h113.86v113.86H9.73z"></path><path fill="#1891db" d="M.93 123.13H0V8.8h114.32v.93H.93v113.4zM132.84 141.92H18.52V141h113.39V27.6h.93v114.32z"></path></g></svg></g> <g filter="url(#colors5820612923)"><svg xmlns="http://www.w3.org/2000/svg" xmlns:xlink="http://www.w3.org/1999/xlink" viewBox="0.004374980926513672 0.004062652587890625 50.40999984741211 50.40999984741211" width="40" height="42.72774" x="10" y="10.681934136045122" class="image-svg-letter"><path transform="translate(-3.515625 50.4140625)" d="M3.52-50.41L3.52-47.18L37.44-47.18L3.69-13.46L3.69 0L53.93 0L53.93-3.23L20.29-3.23L53.93-36.88L53.93-50.41ZM6.93-12.13L41.98-47.18L48.55-47.18L6.93-5.59ZM50.70-44.79L50.70-38.21L15.71-3.23L9.14-3.23Z"></path></svg></g></g><mask id="46bbb43d-acba-44b7-bca1-5df23440a430"><g fill="white"><svg xmlns="http://www.w3.org/2000/svg" viewBox="0 0 132.86 141.92" style="overflow: visible;" width="60" height="64.09160827209024" x="0" y="0" filtersec="colorsf2790901549"><g transform="scale(1, 1) skewX(0)"><path d="M19 0h113.86v113.86H19z"></path><path d="M9.73 18.53h113.86v113.86H9.73z"></path><path d="M.93 123.13H0V8.8h114.32v.93H.93v113.4zM132.84 141.92H18.52V141h113.39V27.6h.93v114.32z"></path></g></svg></g> <g fill="black"><svg xmlns="http://www.w3.org/2000/svg" xmlns:xlink="http://www.w3.org/1999/xlink" viewBox="0.004374980926513672 0.004062652587890625 50.40999984741211 50.40999984741211" width="40" height="42.72774" x="10" y="10.681934136045122" class="image-svg-letter"><path transform="translate(-3.515625 50.4140625)" d="M3.52-50.41L3.52-47.18L37.44-47.18L3.69-13.46L3.69 0L53.93 0L53.93-3.23L20.29-3.23L53.93-36.88L53.93-50.41ZM6.93-12.13L41.98-47.18L48.55-47.18L6.93-5.59ZM50.70-44.79L50.70-38.21L15.71-3.23L9.14-3.23Z"></path></svg></g></mask></svg> <defs><filter id="colors5820612923"><feColorMatrix type="matrix" values="0 0 0 0 0.09375  0 0 0 0 0.56640625  0 0 0 0 0.85546875  0 0 0 1 0" class="icon-feColorMatrix "></feColorMatrix></filter> <filter id="colorsf2790901549"><feColorMatrix type="matrix" values="0 0 0 0 0.99609375  0 0 0 0 0.99609375  0 0 0 0 0.99609375  0 0 0 1 0" class="icon-fecolormatrix"></feColorMatrix></filter> <filter id="colorsb431826359"><feColorMatrix type="matrix" values="0 0 0 0 0  0 0 0 0 0  0 0 0 0 0  0 0 0 1 0" class="icon-fecolormatrix"></feColorMatrix></filter></defs></g></g></g> <g fill="#cfe2f3" transform="translate(153.779541015625, 39.53031054947728)"><g transform="scale(1)"><path d="M22.73-27.34L16.8-27.34Q14.17-27.34 14.17-24.71L14.17-24.71 14.17-21.09 25.37-21.09 25.37-24.71Q25.37-27.34 22.73-27.34L22.73-27.34ZM35.58-8.9L35.58-0.66Q22.86 0.66 12.52 0.66L12.52 0.66Q8.04 0.66 5.34-2.04 2.64-4.74 2.64-9.22L2.64-9.22 2.64-25.04Q2.64-29.98 5.44-32.78 8.24-35.58 13.18-35.58L13.18-35.58 26.36-35.58Q31.3-35.58 34.1-32.78 36.9-29.98 36.9-25.04L36.9-25.04 36.9-12.85 14.17-12.85 14.17-10.21Q14.17-9.22 14.83-8.57 15.48-7.91 16.47-7.91L16.47-7.91Q23-7.91 35.58-8.9L35.58-8.9ZM64.57-26.03L62.27-26.03Q58.78-26.03 54.36-24.71L54.36-24.71 54.36 0 42.83 0 42.83-34.92 53.04-34.92 53.7-31.63Q56.8-33.67 60.06-34.63 63.32-35.58 65.56-35.58L65.56-35.58 68.53-35.58Q73.01-35.58 75.71-32.88 78.41-30.18 78.41-25.7L78.41-25.7 78.41 0 66.88 0 66.88-23.72Q66.88-24.71 66.22-25.37 65.56-26.03 64.57-26.03L64.57-26.03Z" transform="translate(-2.640000104904175, 35.58000183105469)"></path></g></g></g> <g fill-rule="" class="tp-slogan iconsvg-slogansvg" fill="#cfe2f3" transform="translate(5,87.2995376586914)"><rect x="0" height="1" y="3.6490001678466797" width="36.54777526855469"></rect> <rect height="1" y="3.6490001678466797" width="36.54777526855469" x="183.00177001953125"></rect> <g transform="translate(39.54777526855469,0)"><g transform="scale(0.8999999999999997)"><path d="M2.02 0L1.06 0L1.06-8.94L2.02-8.94L2.02 0ZM5.09 0L4.13 0L4.13-8.94L4.97-8.94L10.21-1.42L9.89-1.42L9.89-8.94L10.85-8.94L10.85 0L10.01 0L4.76-7.57L5.09-7.57L5.09 0ZM15.47 0L14.51 0L14.51-8.04L12.04-8.04L12.04-8.94L17.92-8.94L17.92-8.04L15.47-8.04L15.47 0ZM24.86 0L19.10 0L19.10-8.94L24.86-8.94L24.86-8.04L20.06-8.04L20.06-4.93L24.62-4.93L24.62-4.03L20.06-4.03L20.06-0.90L24.86-0.90L24.86 0ZM31.37 0L26.45 0L26.45-8.94L27.41-8.94L27.41-0.90L31.37-0.90L31.37 0ZM37.74 0L32.82 0L32.82-8.94L33.78-8.94L33.78-0.90L37.74-0.90L37.74 0ZM40.15 0L39.19 0L39.19-8.94L40.15-8.94L40.15 0ZM46.34 0.14L46.34 0.14Q45.40 0.14 44.60-0.20Q43.81-0.54 43.23-1.16Q42.65-1.78 42.32-2.62Q42.00-3.46 42.00-4.46L42.00-4.46Q42.00-5.47 42.32-6.31Q42.65-7.15 43.23-7.78Q43.81-8.40 44.60-8.74Q45.40-9.08 46.34-9.08L46.34-9.08Q47.26-9.08 47.98-8.76Q48.71-8.44 49.21-7.93Q49.70-7.42 49.92-6.85L49.92-6.85L49.06-6.43Q48.72-7.25 48.02-7.72Q47.33-8.18 46.34-8.18L46.34-8.18Q45.36-8.18 44.59-7.72Q43.82-7.25 43.39-6.41Q42.96-5.58 42.96-4.46L42.96-4.46Q42.96-3.36 43.39-2.52Q43.82-1.68 44.59-1.22Q45.36-0.76 46.34-0.76L46.34-0.76Q47.22-0.76 47.92-1.14Q48.62-1.52 49.03-2.19Q49.44-2.86 49.44-3.72L49.44-3.72L49.44-4.21L49.87-3.78L46.34-3.78L46.34-4.62L50.40-4.62L50.40-3.88Q50.40-3 50.09-2.26Q49.78-1.52 49.22-0.98Q48.67-0.44 47.93-0.15Q47.20 0.14 46.34 0.14ZM57.88 0L52.12 0L52.12-8.94L57.88-8.94L57.88-8.04L53.08-8.04L53.08-4.93L57.64-4.93L57.64-4.03L53.08-4.03L53.08-0.90L57.88-0.90L57.88 0ZM60.42 0L59.46 0L59.46-8.94L60.30-8.94L65.54-1.42L65.22-1.42L65.22-8.94L66.18-8.94L66.18 0L65.34 0L60.10-7.57L60.42-7.57L60.42 0ZM70.80 0L69.84 0L69.84-8.04L67.37-8.04L67.37-8.94L73.25-8.94L73.25-8.04L70.80-8.04L70.80 0ZM77.44 0L76.48 0L76.48-8.94L77.44-8.94L77.44-4.92L82.24-4.92L82.24-8.94L83.20-8.94L83.20 0L82.24 0L82.24-4.02L77.44-4.02L77.44 0ZM86.27 0L85.31 0L85.31-8.94L86.27-8.94L86.27 0ZM89.34 0L88.38 0L88.38-8.94L91.45-8.94Q92.33-8.94 92.99-8.60Q93.65-8.26 94.01-7.64Q94.38-7.02 94.38-6.20L94.38-6.20Q94.38-5.26 93.88-4.58Q93.38-3.91 92.53-3.64L92.53-3.64L94.62 0L93.49 0L91.31-3.85L91.96-3.48L89.34-3.48L89.34 0ZM89.34-8.04L89.34-4.38L91.50-4.38Q92.08-4.38 92.51-4.60Q92.94-4.82 93.18-5.24Q93.42-5.65 93.42-6.22L93.42-6.22Q93.42-6.78 93.18-7.19Q92.94-7.60 92.51-7.82Q92.08-8.04 91.50-8.04L91.50-8.04L89.34-8.04ZM97.03 0L96.07 0L96.07-8.94L97.03-8.94L97.03 0ZM100.10 0L99.14 0L99.14-8.94L99.98-8.94L105.23-1.42L104.90-1.42L104.90-8.94L105.86-8.94L105.86 0L105.02 0L99.78-7.57L100.10-7.57L100.10 0ZM112.06 0.14L112.06 0.14Q111.11 0.14 110.32-0.20Q109.52-0.54 108.94-1.16Q108.36-1.78 108.04-2.62Q107.71-3.46 107.71-4.46L107.71-4.46Q107.71-5.47 108.04-6.31Q108.36-7.15 108.94-7.78Q109.52-8.40 110.32-8.74Q111.11-9.08 112.06-9.08L112.06-9.08Q112.97-9.08 113.69-8.76Q114.42-8.44 114.92-7.93Q115.42-7.42 115.63-6.85L115.63-6.85L114.77-6.43Q114.43-7.25 113.74-7.72Q113.04-8.18 112.06-8.18L112.06-8.18Q111.07-8.18 110.30-7.72Q109.54-7.25 109.10-6.41Q108.67-5.58 108.67-4.46L108.67-4.46Q108.67-3.36 109.10-2.52Q109.54-1.68 110.30-1.22Q111.07-0.76 112.06-0.76L112.06-0.76Q112.93-0.76 113.63-1.14Q114.34-1.52 114.74-2.19Q115.15-2.86 115.15-3.72L115.15-3.72L115.15-4.21L115.58-3.78L112.06-3.78L112.06-4.62L116.11-4.62L116.11-3.88Q116.11-3 115.80-2.26Q115.49-1.52 114.94-0.98Q114.38-0.44 113.65-0.15Q112.91 0.14 112.06 0.14ZM125.63 0L119.87 0L119.87-8.94L125.63-8.94L125.63-8.04L120.83-8.04L120.83-4.93L125.39-4.93L125.39-4.03L120.83-4.03L120.83-0.90L125.63-0.90L125.63 0ZM128.17 0L127.21 0L127.21-8.94L128.05-8.94L133.30-1.42L132.97-1.42L132.97-8.94L133.93-8.94L133.93 0L133.09 0L127.85-7.57L128.17-7.57L128.17 0ZM141.73 0L135.25 0L135.25-0.65L140.36-8.04L135.55-8.04L135.55-8.94L141.62-8.94L141.62-8.29L136.52-0.90L141.73-0.90L141.73 0ZM148.81 0L143.05 0L143.05-8.94L148.81-8.94L148.81-8.04L144.01-8.04L144.01-4.93L148.57-4.93L148.57-4.03L144.01-4.03L144.01-0.90L148.81-0.90L148.81 0ZM151.36 0L150.40 0L150.40-8.94L151.24-8.94L156.48-1.42L156.16-1.42L156.16-8.94L157.12-8.94L157.12 0L156.28 0L151.03-7.57L151.36-7.57L151.36 0Z" transform="translate(-1.056, 9.084)"></path></g></g></g></g><defs v-gra="od"></defs></g></svg>